<svg xmlns="http://www.w3.org/2000/svg" width="256" height="256" viewBox="0 0 100 100"><rect width="100" height="100" rx="20" fill="#2f3e9e"></rect><path fill="#fff" d="M17.17 28.67L22.36 71.33L27.92 71.33L33.14 41.01L33.46 39.19L33.75 40.98L38.94 71.33L44.48 71.33L49.66 28.67L44.54 28.67L41.46 58.03L41.28 59.79L40.96 58.06L35.78 28.67L31.06 28.67L25.90 58.03L25.58 59.79L25.41 58.09L22.33 28.67L17.17 28.67ZM62.11 52.49L79.87 52.49L79.87 47.89L62.11 47.89L62.11 33.30L82.83 33.30L82.83 28.67L56.64 28.67L56.64 71.33L62.11 71.33L62.11 52.49Z"></path></svg>